<svg width="1080" height="196" viewBox="0 0 1080 196" fill="none" xmlns="http://www.w3.org/2000/svg">
<path fill-rule="evenodd" clip-rule="evenodd" d="M175.503 157.985C157.577 181.113 129.527 196 98 196C43.8761 196 0 152.124 0 98C0 43.8761 43.8761 0 98 0C131.616 0 161.279 16.9255 178.931 42.7195C185.988 46.2231 192.067 48.0151 198.043 48.1176C205.69 48.2488 213.515 45.6155 223.345 39.5316C241.208 15.5399 269.789 0 302 0H641C675.329 0 705.536 17.6515 723.039 44.3734C729.867 47.0267 735.984 48.4054 742.037 48.4952C750.426 48.6199 758.939 46.2711 769.296 40.9664C787.078 16.1614 816.152 0 849 0H982C1036.12 0 1080 43.8761 1080 98C1080 152.124 1036.12 196 982 196H849C817.894 196 790.173 181.508 772.221 158.907C760.606 152.689 751.403 149.591 742.742 149.502C735.325 149.426 728.076 151.558 719.828 156.236C701.976 180.36 673.314 196 641 196H302C270.888 196 243.163 181.502 225.211 158.894C214.637 152.595 206.393 149.5 198.691 149.413C191.333 149.33 184.122 151.996 175.503 157.985ZM756.088 51.7809C756.113 51.7249 756.137 51.6689 756.162 51.6133C755.815 51.7086 755.468 51.8004 755.122 51.8885C754.974 51.9264 754.825 51.9635 754.677 52H755.996C756.026 51.9266 756.057 51.8536 756.088 51.7809Z" fill="white"/>
</svg>
